STARTFONT 2.1
COMMENT Board 5x7 font. Based on X11 misc-fixed 5x7 (public domain).
COMMENT Generated by scripts/build-fonts.js. Do not edit; edit the script.
FONT -ctamap-Board5x7-Medium-R-Normal--7-70-75-75-P-50-ISO10646-1
SIZE 7 75 75
FONTBOUNDINGBOX 11 7 0 -1
STARTPROPERTIES 23
FONTNAME_REGISTRY ""
FOUNDRY "Misc"
FAMILY_NAME "Fixed"
WEIGHT_NAME "Medium"
SLANT "R"
SETWIDTH_NAME "Normal"
ADD_STYLE_NAME ""
PIXEL_SIZE 7
POINT_SIZE 70
RESOLUTION_X 75
RESOLUTION_Y 75
SPACING "P"
AVERAGE_WIDTH 50
CHARSET_REGISTRY "ISO10646"
CHARSET_ENCODING "1"
FONT_ASCENT 6
FONT_DESCENT 1
DESTINATION 1
DEFAULT_CHAR 0
COPYRIGHT "Public domain font.  Share and enjoy."
_XMBDFED_INFO "Edited with xmbdfed 4.5."
CAP_HEIGHT 6
X_HEIGHT 4
ENDPROPERTIES
CHARS 97
STARTCHAR space
ENCODING 32
SWIDTH 375 0
DWIDTH 3 0
BBX 1 1 0 0
BITMAP
00
ENDCHAR
STARTCHAR exclam
ENCODING 33
SWIDTH 250 0
DWIDTH 2 0
BBX 1 7 0 -1
BITMAP
80
80
80
80
00
80
00
ENDCHAR
STARTCHAR quotedbl
ENCODING 34
SWIDTH 500 0
DWIDTH 4 0
BBX 3 7 0 -1
BITMAP
A0
A0
A0
00
00
00
00
ENDCHAR
STARTCHAR numbersign
ENCODING 35
SWIDTH 750 0
DWIDTH 6 0
BBX 5 7 0 -1
BITMAP
00
50
F8
50
F8
50
00
ENDCHAR
STARTCHAR dollar
ENCODING 36
SWIDTH 750 0
DWIDTH 6 0
BBX 5 7 0 -1
BITMAP
00
70
A0
70
28
70
00
ENDCHAR
STARTCHAR percent
ENCODING 37
SWIDTH 625 0
DWIDTH 5 0
BBX 4 7 0 -1
BITMAP
80
90
20
40
90
10
00
ENDCHAR
STARTCHAR ampersand
ENCODING 38
SWIDTH 625 0
DWIDTH 5 0
BBX 4 7 0 -1
BITMAP
00
40
A0
40
A0
50
00
ENDCHAR
STARTCHAR quotesingle
ENCODING 39
SWIDTH 250 0
DWIDTH 2 0
BBX 1 7 0 -1
BITMAP
80
80
80
00
00
00
00
ENDCHAR
STARTCHAR parenleft
ENCODING 40
SWIDTH 375 0
DWIDTH 3 0
BBX 2 7 0 -1
BITMAP
40
80
80
80
80
40
00
ENDCHAR
STARTCHAR parenright
ENCODING 41
SWIDTH 375 0
DWIDTH 3 0
BBX 2 7 0 -1
BITMAP
80
40
40
40
40
80
00
ENDCHAR
STARTCHAR asterisk
ENCODING 42
SWIDTH 500 0
DWIDTH 4 0
BBX 3 7 0 -1
BITMAP
00
A0
40
E0
40
A0
00
ENDCHAR
STARTCHAR plus
ENCODING 43
SWIDTH 750 0
DWIDTH 6 0
BBX 5 7 0 -1
BITMAP
00
20
20
F8
20
20
00
ENDCHAR
STARTCHAR comma
ENCODING 44
SWIDTH 500 0
DWIDTH 4 0
BBX 3 7 0 -1
BITMAP
00
00
00
00
60
40
80
ENDCHAR
STARTCHAR hyphen
ENCODING 45
SWIDTH 625 0
DWIDTH 5 0
BBX 4 7 0 -1
BITMAP
00
00
00
F0
00
00
00
ENDCHAR
STARTCHAR period
ENCODING 46
SWIDTH 375 0
DWIDTH 3 0
BBX 2 7 0 -1
BITMAP
00
00
00
00
C0
C0
00
ENDCHAR
STARTCHAR slash
ENCODING 47
SWIDTH 625 0
DWIDTH 5 0
BBX 4 7 0 -1
BITMAP
00
10
20
40
80
00
00
ENDCHAR
STARTCHAR zero
ENCODING 48
SWIDTH 625 0
DWIDTH 5 0
BBX 4 7 0 -1
BITMAP
20
50
50
50
50
20
00
ENDCHAR
STARTCHAR one
ENCODING 49
SWIDTH 625 0
DWIDTH 5 0
BBX 4 7 0 -1
BITMAP
20
60
20
20
20
70
00
ENDCHAR
STARTCHAR two
ENCODING 50
SWIDTH 625 0
DWIDTH 5 0
BBX 4 7 0 -1
BITMAP
60
90
10
20
40
F0
00
ENDCHAR
STARTCHAR three
ENCODING 51
SWIDTH 625 0
DWIDTH 5 0
BBX 4 7 0 -1
BITMAP
F0
10
60
10
90
60
00
ENDCHAR
STARTCHAR four
ENCODING 52
SWIDTH 625 0
DWIDTH 5 0
BBX 4 7 0 -1
BITMAP
20
60
A0
F0
20
20
00
ENDCHAR
STARTCHAR five
ENCODING 53
SWIDTH 625 0
DWIDTH 5 0
BBX 4 7 0 -1
BITMAP
F0
80
E0
10
90
60
00
ENDCHAR
STARTCHAR six
ENCODING 54
SWIDTH 625 0
DWIDTH 5 0
BBX 4 7 0 -1
BITMAP
60
80
E0
90
90
60
00
ENDCHAR
STARTCHAR seven
ENCODING 55
SWIDTH 625 0
DWIDTH 5 0
BBX 4 7 0 -1
BITMAP
F0
10
20
20
40
40
00
ENDCHAR
STARTCHAR eight
ENCODING 56
SWIDTH 625 0
DWIDTH 5 0
BBX 4 7 0 -1
BITMAP
60
90
60
90
90
60
00
ENDCHAR
STARTCHAR nine
ENCODING 57
SWIDTH 625 0
DWIDTH 5 0
BBX 4 7 0 -1
BITMAP
60
90
90
70
10
60
00
ENDCHAR
STARTCHAR colon
ENCODING 58
SWIDTH 375 0
DWIDTH 3 0
BBX 2 7 0 -1
BITMAP
00
C0
C0
00
C0
C0
00
ENDCHAR
STARTCHAR semicolon
ENCODING 59
SWIDTH 500 0
DWIDTH 4 0
BBX 3 7 0 -1
BITMAP
00
60
60
00
60
40
80
ENDCHAR
STARTCHAR less
ENCODING 60
SWIDTH 500 0
DWIDTH 4 0
BBX 3 7 0 -1
BITMAP
00
20
40
80
40
20
00
ENDCHAR
STARTCHAR equal
ENCODING 61
SWIDTH 625 0
DWIDTH 5 0
BBX 4 7 0 -1
BITMAP
00
00
F0
00
F0
00
00
ENDCHAR
STARTCHAR greater
ENCODING 62
SWIDTH 500 0
DWIDTH 4 0
BBX 3 7 0 -1
BITMAP
00
80
40
20
40
80
00
ENDCHAR
STARTCHAR question
ENCODING 63
SWIDTH 500 0
DWIDTH 4 0
BBX 3 7 0 -1
BITMAP
40
A0
20
40
00
40
00
ENDCHAR
STARTCHAR at
ENCODING 64
SWIDTH 625 0
DWIDTH 5 0
BBX 4 7 0 -1
BITMAP
60
90
B0
B0
80
60
00
ENDCHAR
STARTCHAR A
ENCODING 65
SWIDTH 625 0
DWIDTH 5 0
BBX 4 7 0 -1
BITMAP
60
90
90
F0
90
90
00
ENDCHAR
STARTCHAR B
ENCODING 66
SWIDTH 625 0
DWIDTH 5 0
BBX 4 7 0 -1
BITMAP
E0
90
E0
90
90
E0
00
ENDCHAR
STARTCHAR C
ENCODING 67
SWIDTH 625 0
DWIDTH 5 0
BBX 4 7 0 -1
BITMAP
60
90
80
80
90
60
00
ENDCHAR
STARTCHAR D
ENCODING 68
SWIDTH 625 0
DWIDTH 5 0
BBX 4 7 0 -1
BITMAP
E0
90
90
90
90
E0
00
ENDCHAR
STARTCHAR E
ENCODING 69
SWIDTH 625 0
DWIDTH 5 0
BBX 4 7 0 -1
BITMAP
F0
80
E0
80
80
F0
00
ENDCHAR
STARTCHAR F
ENCODING 70
SWIDTH 625 0
DWIDTH 5 0
BBX 4 7 0 -1
BITMAP
F0
80
E0
80
80
80
00
ENDCHAR
STARTCHAR G
ENCODING 71
SWIDTH 625 0
DWIDTH 5 0
BBX 4 7 0 -1
BITMAP
60
90
80
B0
90
70
00
ENDCHAR
STARTCHAR H
ENCODING 72
SWIDTH 625 0
DWIDTH 5 0
BBX 4 7 0 -1
BITMAP
90
90
F0
90
90
90
00
ENDCHAR
STARTCHAR I
ENCODING 73
SWIDTH 500 0
DWIDTH 4 0
BBX 3 7 0 -1
BITMAP
E0
40
40
40
40
E0
00
ENDCHAR
STARTCHAR J
ENCODING 74
SWIDTH 625 0
DWIDTH 5 0
BBX 4 7 0 -1
BITMAP
10
10
10
10
90
60
00
ENDCHAR
STARTCHAR K
ENCODING 75
SWIDTH 625 0
DWIDTH 5 0
BBX 4 7 0 -1
BITMAP
90
A0
C0
C0
A0
90
00
ENDCHAR
STARTCHAR L
ENCODING 76
SWIDTH 625 0
DWIDTH 5 0
BBX 4 7 0 -1
BITMAP
80
80
80
80
80
F0
00
ENDCHAR
STARTCHAR M
ENCODING 77
SWIDTH 625 0
DWIDTH 5 0
BBX 4 7 0 -1
BITMAP
90
F0
F0
90
90
90
00
ENDCHAR
STARTCHAR N
ENCODING 78
SWIDTH 625 0
DWIDTH 5 0
BBX 4 7 0 -1
BITMAP
90
D0
D0
B0
B0
90
00
ENDCHAR
STARTCHAR O
ENCODING 79
SWIDTH 625 0
DWIDTH 5 0
BBX 4 7 0 -1
BITMAP
60
90
90
90
90
60
00
ENDCHAR
STARTCHAR P
ENCODING 80
SWIDTH 625 0
DWIDTH 5 0
BBX 4 7 0 -1
BITMAP
E0
90
90
E0
80
80
00
ENDCHAR
STARTCHAR Q
ENCODING 81
SWIDTH 625 0
DWIDTH 5 0
BBX 4 7 0 -1
BITMAP
60
90
90
90
D0
60
10
ENDCHAR
STARTCHAR R
ENCODING 82
SWIDTH 625 0
DWIDTH 5 0
BBX 4 7 0 -1
BITMAP
E0
90
90
E0
A0
90
00
ENDCHAR
STARTCHAR S
ENCODING 83
SWIDTH 625 0
DWIDTH 5 0
BBX 4 7 0 -1
BITMAP
60
90
40
20
90
60
00
ENDCHAR
STARTCHAR T
ENCODING 84
SWIDTH 500 0
DWIDTH 4 0
BBX 3 7 0 -1
BITMAP
E0
40
40
40
40
40
00
ENDCHAR
STARTCHAR U
ENCODING 85
SWIDTH 625 0
DWIDTH 5 0
BBX 4 7 0 -1
BITMAP
90
90
90
90
90
60
00
ENDCHAR
STARTCHAR V
ENCODING 86
SWIDTH 625 0
DWIDTH 5 0
BBX 4 7 0 -1
BITMAP
90
90
90
90
60
60
00
ENDCHAR
STARTCHAR W
ENCODING 87
SWIDTH 750 0
DWIDTH 6 0
BBX 5 7 0 -1
BITMAP
88
88
88
A8
A8
50
00
ENDCHAR
STARTCHAR X
ENCODING 88
SWIDTH 625 0
DWIDTH 5 0
BBX 4 7 0 -1
BITMAP
90
90
60
60
90
90
00
ENDCHAR
STARTCHAR Y
ENCODING 89
SWIDTH 500 0
DWIDTH 4 0
BBX 3 7 0 -1
BITMAP
A0
A0
A0
40
40
40
00
ENDCHAR
STARTCHAR Z
ENCODING 90
SWIDTH 625 0
DWIDTH 5 0
BBX 4 7 0 -1
BITMAP
F0
10
20
40
80
F0
00
ENDCHAR
STARTCHAR bracketleft
ENCODING 91
SWIDTH 500 0
DWIDTH 4 0
BBX 3 7 0 -1
BITMAP
E0
80
80
80
80
E0
00
ENDCHAR
STARTCHAR backslash
ENCODING 92
SWIDTH 625 0
DWIDTH 5 0
BBX 4 7 0 -1
BITMAP
00
80
40
20
10
00
00
ENDCHAR
STARTCHAR bracketright
ENCODING 93
SWIDTH 500 0
DWIDTH 4 0
BBX 3 7 0 -1
BITMAP
E0
20
20
20
20
E0
00
ENDCHAR
STARTCHAR asciicircum
ENCODING 94
SWIDTH 500 0
DWIDTH 4 0
BBX 3 7 0 -1
BITMAP
40
A0
00
00
00
00
00
ENDCHAR
STARTCHAR underscore
ENCODING 95
SWIDTH 625 0
DWIDTH 5 0
BBX 4 7 0 -1
BITMAP
00
00
00
00
00
F0
00
ENDCHAR
STARTCHAR grave
ENCODING 96
SWIDTH 375 0
DWIDTH 3 0
BBX 2 7 0 -1
BITMAP
80
40
00
00
00
00
00
ENDCHAR
STARTCHAR a
ENCODING 97
SWIDTH 625 0
DWIDTH 5 0
BBX 4 7 0 -1
BITMAP
00
00
70
90
B0
50
00
ENDCHAR
STARTCHAR b
ENCODING 98
SWIDTH 625 0
DWIDTH 5 0
BBX 4 7 0 -1
BITMAP
80
80
E0
90
90
E0
00
ENDCHAR
STARTCHAR c
ENCODING 99
SWIDTH 500 0
DWIDTH 4 0
BBX 3 7 0 -1
BITMAP
00
00
60
80
80
60
00
ENDCHAR
STARTCHAR d
ENCODING 100
SWIDTH 625 0
DWIDTH 5 0
BBX 4 7 0 -1
BITMAP
10
10
70
90
90
70
00
ENDCHAR
STARTCHAR e
ENCODING 101
SWIDTH 625 0
DWIDTH 5 0
BBX 4 7 0 -1
BITMAP
00
00
60
B0
C0
60
00
ENDCHAR
STARTCHAR f
ENCODING 102
SWIDTH 625 0
DWIDTH 5 0
BBX 4 7 0 -1
BITMAP
20
50
40
E0
40
40
00
ENDCHAR
STARTCHAR g
ENCODING 103
SWIDTH 625 0
DWIDTH 5 0
BBX 4 7 0 -1
BITMAP
00
00
70
90
60
80
70
ENDCHAR
STARTCHAR h
ENCODING 104
SWIDTH 625 0
DWIDTH 5 0
BBX 4 7 0 -1
BITMAP
80
80
E0
90
90
90
00
ENDCHAR
STARTCHAR i
ENCODING 105
SWIDTH 500 0
DWIDTH 4 0
BBX 3 7 0 -1
BITMAP
40
00
C0
40
40
E0
00
ENDCHAR
STARTCHAR j
ENCODING 106
SWIDTH 500 0
DWIDTH 4 0
BBX 3 7 0 -1
BITMAP
20
00
20
20
20
A0
40
ENDCHAR
STARTCHAR k
ENCODING 107
SWIDTH 625 0
DWIDTH 5 0
BBX 4 7 0 -1
BITMAP
80
80
A0
C0
A0
90
00
ENDCHAR
STARTCHAR l
ENCODING 108
SWIDTH 500 0
DWIDTH 4 0
BBX 3 7 0 -1
BITMAP
C0
40
40
40
40
E0
00
ENDCHAR
STARTCHAR m
ENCODING 109
SWIDTH 625 0
DWIDTH 5 0
BBX 4 7 0 -1
BITMAP
00
00
A0
F0
90
90
00
ENDCHAR
STARTCHAR n
ENCODING 110
SWIDTH 625 0
DWIDTH 5 0
BBX 4 7 0 -1
BITMAP
00
00
E0
90
90
90
00
ENDCHAR
STARTCHAR o
ENCODING 111
SWIDTH 625 0
DWIDTH 5 0
BBX 4 7 0 -1
BITMAP
00
00
60
90
90
60
00
ENDCHAR
STARTCHAR p
ENCODING 112
SWIDTH 625 0
DWIDTH 5 0
BBX 4 7 0 -1
BITMAP
00
00
E0
90
90
E0
80
ENDCHAR
STARTCHAR q
ENCODING 113
SWIDTH 625 0
DWIDTH 5 0
BBX 4 7 0 -1
BITMAP
00
00
70
90
90
70
10
ENDCHAR
STARTCHAR r
ENCODING 114
SWIDTH 625 0
DWIDTH 5 0
BBX 4 7 0 -1
BITMAP
00
00
E0
90
80
80
00
ENDCHAR
STARTCHAR s
ENCODING 115
SWIDTH 625 0
DWIDTH 5 0
BBX 4 7 0 -1
BITMAP
00
00
70
C0
30
E0
00
ENDCHAR
STARTCHAR t
ENCODING 116
SWIDTH 500 0
DWIDTH 4 0
BBX 3 7 0 -1
BITMAP
40
40
E0
40
40
60
00
ENDCHAR
STARTCHAR u
ENCODING 117
SWIDTH 625 0
DWIDTH 5 0
BBX 4 7 0 -1
BITMAP
00
00
90
90
90
70
00
ENDCHAR
STARTCHAR v
ENCODING 118
SWIDTH 500 0
DWIDTH 4 0
BBX 3 7 0 -1
BITMAP
00
00
A0
A0
A0
40
00
ENDCHAR
STARTCHAR w
ENCODING 119
SWIDTH 750 0
DWIDTH 6 0
BBX 5 7 0 -1
BITMAP
00
00
88
A8
A8
50
00
ENDCHAR
STARTCHAR x
ENCODING 120
SWIDTH 625 0
DWIDTH 5 0
BBX 4 7 0 -1
BITMAP
00
00
90
60
60
90
00
ENDCHAR
STARTCHAR y
ENCODING 121
SWIDTH 625 0
DWIDTH 5 0
BBX 4 7 0 -1
BITMAP
00
00
90
90
50
20
40
ENDCHAR
STARTCHAR z
ENCODING 122
SWIDTH 625 0
DWIDTH 5 0
BBX 4 7 0 -1
BITMAP
00
00
F0
20
40
F0
00
ENDCHAR
STARTCHAR braceleft
ENCODING 123
SWIDTH 500 0
DWIDTH 4 0
BBX 3 7 0 -1
BITMAP
20
40
C0
40
40
20
00
ENDCHAR
STARTCHAR bar
ENCODING 124
SWIDTH 250 0
DWIDTH 2 0
BBX 1 7 0 -1
BITMAP
80
80
80
80
80
80
00
ENDCHAR
STARTCHAR braceright
ENCODING 125
SWIDTH 500 0
DWIDTH 4 0
BBX 3 7 0 -1
BITMAP
80
40
60
40
40
80
00
ENDCHAR
STARTCHAR asciitilde
ENCODING 126
SWIDTH 625 0
DWIDTH 5 0
BBX 4 7 0 -1
BITMAP
50
A0
00
00
00
00
00
ENDCHAR
STARTCHAR tt
ENCODING 57344
SWIDTH 875 0
DWIDTH 7 0
BBX 6 7 0 -1
BITMAP
48
48
FC
48
48
6C
00
ENDCHAR
STARTCHAR min
ENCODING 57345
SWIDTH 1500 0
DWIDTH 12 0
BBX 11 7 0 -1
BITMAP
0200
0000
D2C0
AAA0
AAA0
AAA0
0000
ENDCHAR
ENDFONT
