STARTFONT 2.1
COMMENT Board clock font. Based on X11 misc-fixed 9x15 Bold (public domain).
COMMENT Generated by scripts/build-fonts.js. Do not edit; edit the script.
FONT -ctamap-BoardClock-Bold-R-Normal--15-140-75-75-C-90-ISO10646-1
SIZE 11 75 75
FONTBOUNDINGBOX 9 15 0 -3
STARTPROPERTIES 22
FONTNAME_REGISTRY ""
FOUNDRY "Misc"
FAMILY_NAME "Fixed"
WEIGHT_NAME "Bold"
SLANT "R"
SETWIDTH_NAME "Normal"
ADD_STYLE_NAME ""
PIXEL_SIZE 15
POINT_SIZE 140
RESOLUTION_X 75
RESOLUTION_Y 75
SPACING "C"
AVERAGE_WIDTH 90
CHARSET_REGISTRY "ISO10646"
CHARSET_ENCODING "1"
DEFAULT_CHAR 0
FONT_DESCENT 3
FONT_ASCENT 12
COPYRIGHT "Public domain font.  Share and enjoy."
_XMBDFED_INFO "Edited with xmbdfed 4.5."
X_HEIGHT 7
CAP_HEIGHT 10
ENDPROPERTIES
CHARS 12
STARTCHAR space
ENCODING 32
SWIDTH 1125 0
DWIDTH 9 0
BBX 9 15 0 -3
BITMAP
0000
0000
0000
0000
0000
0000
0000
0000
0000
0000
0000
0000
0000
0000
0000
ENDCHAR
STARTCHAR zero
ENCODING 48
SWIDTH 1125 0
DWIDTH 9 0
BBX 9 15 0 -3
BITMAP
0000
0000
1800
3C00
6600
C300
C300
C300
C300
6600
3C00
1800
0000
0000
0000
ENDCHAR
STARTCHAR one
ENCODING 49
SWIDTH 1125 0
DWIDTH 9 0
BBX 9 15 0 -3
BITMAP
0000
0000
1800
3800
7800
1800
1800
1800
1800
1800
1800
7E00
0000
0000
0000
ENDCHAR
STARTCHAR two
ENCODING 50
SWIDTH 1125 0
DWIDTH 9 0
BBX 9 15 0 -3
BITMAP
0000
0000
3C00
6600
C300
0300
0600
0C00
1800
3000
6000
FF00
0000
0000
0000
ENDCHAR
STARTCHAR three
ENCODING 51
SWIDTH 1125 0
DWIDTH 9 0
BBX 9 15 0 -3
BITMAP
0000
0000
7C00
C600
0300
0600
1C00
0600
0300
0300
C600
7C00
0000
0000
0000
ENDCHAR
STARTCHAR four
ENCODING 52
SWIDTH 1125 0
DWIDTH 9 0
BBX 9 15 0 -3
BITMAP
0000
0000
0600
0E00
1E00
3600
6600
C600
FF00
0600
0600
0600
0000
0000
0000
ENDCHAR
STARTCHAR five
ENCODING 53
SWIDTH 1125 0
DWIDTH 9 0
BBX 9 15 0 -3
BITMAP
0000
0000
FE00
C000
C000
DC00
E600
0300
0300
C300
6600
3C00
0000
0000
0000
ENDCHAR
STARTCHAR six
ENCODING 54
SWIDTH 1125 0
DWIDTH 9 0
BBX 9 15 0 -3
BITMAP
0000
0000
3C00
6600
C200
C000
DC00
E600
C300
C300
6600
3C00
0000
0000
0000
ENDCHAR
STARTCHAR seven
ENCODING 55
SWIDTH 1125 0
DWIDTH 9 0
BBX 9 15 0 -3
BITMAP
0000
0000
FF00
0300
0300
0600
0C00
0C00
1800
1800
1800
1800
0000
0000
0000
ENDCHAR
STARTCHAR eight
ENCODING 56
SWIDTH 1125 0
DWIDTH 9 0
BBX 9 15 0 -3
BITMAP
0000
0000
3C00
6600
C300
6600
3C00
6600
C300
C300
6600
3C00
0000
0000
0000
ENDCHAR
STARTCHAR nine
ENCODING 57
SWIDTH 1125 0
DWIDTH 9 0
BBX 9 15 0 -3
BITMAP
0000
0000
3C00
6600
C300
C300
6700
3B00
0300
4300
6600
3C00
0000
0000
0000
ENDCHAR
STARTCHAR colon
ENCODING 58
SWIDTH 500 0
DWIDTH 4 0
BBX 2 15 1 -3
BITMAP
00
00
00
00
C0
C0
00
00
C0
C0
00
00
00
00
00
ENDCHAR
ENDFONT
